<svg width="27" height="20" viewBox="0 0 27 20" fill="none" xmlns="http://www.w3.org/2000/svg">
<path fill-rule="evenodd" clip-rule="evenodd" d="M17.2805 19.4449C22.6492 19.4449 27.0005 15.0936 27.0005 9.72488C27.0005 4.3562 22.6492 0.00488281 17.2805 0.00488281C11.9119 0.00488281 7.56055 4.3562 7.56055 9.72488C7.56055 15.0936 11.9119 19.4449 17.2805 19.4449ZM17.2805 13.5049C19.3682 13.5049 21.0605 11.8125 21.0605 9.72488C21.0605 7.63724 19.3682 5.94488 17.2805 5.94488C15.1929 5.94488 13.5005 7.63724 13.5005 9.72488C13.5005 11.8125 15.1929 13.5049 17.2805 13.5049Z" fill="#8A42F9"/>
<path d="M7.56 3.24512H0L4.03161 16.2051H7.56V3.24512Z" fill="#8A42F9"/>
</svg>
