<svg width="49" height="15" viewBox="0 0 49 15" fill="none" xmlns="http://www.w3.org/2000/svg">
<g clip-path="url(#clip0_680_8542)">
<path fill-rule="evenodd" clip-rule="evenodd" d="M13.2011 0.419922V0.42585C13.1951 0.42585 11.3031 0.419922 10.7986 2.20433C10.3361 3.84054 9.03273 8.35789 8.99674 8.48242H8.63636C8.63636 8.48242 7.30295 3.86425 6.83446 2.19841C6.32993 0.413994 4.43195 0.419922 4.43195 0.419922H0.107422V13.9957H4.43195V5.93322H4.61213H4.79232L7.31496 13.9957H10.3181L12.8407 5.93915H13.2011V13.9957H17.5257V0.419922H13.2011Z" fill="#4DB45E"/>
<path fill-rule="evenodd" clip-rule="evenodd" d="M28.9968 0.419922C28.9968 0.419922 27.7295 0.532559 27.1348 1.84271L24.0717 8.48242H23.7113V0.419922H19.3867V13.9957H23.471C23.471 13.9957 24.7984 13.8771 25.393 12.5729L28.3961 5.93322H28.7565V13.9957H33.0811V0.419922H28.9968Z" fill="#4DB45E"/>
<path fill-rule="evenodd" clip-rule="evenodd" d="M35.0039 6.58594V13.9963H39.3284V9.66863H44.0133C46.0554 9.66863 47.7852 8.38218 48.4279 6.58594H35.0039Z" fill="#4DB45E"/>
<path fill-rule="evenodd" clip-rule="evenodd" d="M44.0126 0.419922H34.3965C34.877 3.00465 36.8411 5.07955 39.3817 5.75537C39.9583 5.9095 40.565 5.9925 41.1896 5.9925H48.6014C48.6674 5.68424 48.6974 5.37004 48.6974 5.04398C48.6974 2.48889 46.6012 0.419922 44.0126 0.419922Z" fill="url(#paint0_linear_680_8542)"/>
</g>
<defs>
<linearGradient id="paint0_linear_680_8542" x1="34.3976" y1="3.20621" x2="48.6974" y2="3.20621" gradientUnits="userSpaceOnUse">
<stop offset="0.3" stop-color="#00B4E6"/>
<stop offset="1" stop-color="#088CCB"/>
</linearGradient>
<clipPath id="clip0_680_8542">
<rect width="49" height="14" fill="white" transform="translate(0 0.00488281)"/>
</clipPath>
</defs>
</svg>
