<svg width="18" height="18" viewBox="0 0 18 18" fill="white" xmlns="http://www.w3.org/2000/svg">
<path d="M14.0499 16.1855L13.9264 15.4457L14.0499 16.1855ZM16.4711 8.12915L15.7219 8.09325L16.4711 8.12915ZM3.95013 16.1855L3.82669 16.9253L3.95013 16.1855ZM0.779773 8.16504C0.856355 9.76332 1.09773 12.5225 1.67925 14.8666L3.13512 14.5055C2.58787 12.2995 2.35273 9.65184 2.27805 8.09325L0.779773 8.16504ZM3.82669 16.9253C4.87826 17.1007 6.54921 17.2551 9 17.2551V15.7551C6.60602 15.7551 5.02145 15.6039 4.07356 15.4457L3.82669 16.9253ZM15.7219 8.09325C15.6473 9.65184 15.4121 12.2995 14.8649 14.5055L16.3207 14.8666C16.9023 12.5225 17.1436 9.76332 17.2202 8.16504L15.7219 8.09325ZM13.9264 15.4457C12.9785 15.6039 11.394 15.7551 9 15.7551V17.2551C11.4508 17.2551 13.1217 17.1007 14.1733 16.9253L13.9264 15.4457ZM2.5 7.88013H15.5V6.38013H2.5V7.88013ZM14.8649 14.5055C14.7348 15.03 14.3754 15.3708 13.9264 15.4457L14.1733 16.9253C15.294 16.7383 16.0677 15.8866 16.3207 14.8666L14.8649 14.5055ZM17.2202 8.16504C17.2681 7.16625 16.461 6.38013 15.5 6.38013V7.88013C15.6436 7.88013 15.7269 7.98874 15.7219 8.09325L17.2202 8.16504ZM1.67925 14.8666C1.93229 15.8866 2.70604 16.7383 3.82669 16.9253L4.07356 15.4457C3.62462 15.3708 3.26523 15.03 3.13512 14.5055L1.67925 14.8666ZM2.27805 8.09325C2.27305 7.98874 2.35643 7.88013 2.5 7.88013V6.38013C1.539 6.38013 0.731916 7.16625 0.779773 8.16504L2.27805 8.09325Z" fill="#E2195B"/>
<path d="M3.875 7.13013C3.875 7.54434 4.21079 7.88013 4.625 7.88013C5.03921 7.88013 5.375 7.54434 5.375 7.13013H3.875ZM12.625 7.13013C12.625 7.54434 12.9608 7.88013 13.375 7.88013C13.7892 7.88013 14.125 7.54434 14.125 7.13013H12.625ZM5.375 7.13013V5.88012H3.875V7.13013H5.375ZM12.625 5.88012V7.13013H14.125V5.88012H12.625ZM9 2.25513C11.002 2.25513 12.625 3.87809 12.625 5.88012H14.125C14.125 3.04967 11.8305 0.755127 9 0.755127V2.25513ZM5.375 5.88012C5.375 3.87809 6.99797 2.25513 9 2.25513V0.755127C6.16954 0.755127 3.875 3.04967 3.875 5.88012H5.375Z" fill="#E2195B"/>
<path d="M6.5 10.8801V12.7551M11.5 10.8801V12.7551" stroke="#E2195B" stroke-width="1.5" stroke-linecap="round" stroke-linejoin="round"/>
</svg>
