<svg width="36" height="31" viewBox="0 0 36 31" fill="none" xmlns="http://www.w3.org/2000/svg">
<path opacity="0.1" d="M23.0007 20H1.33398V27.5H6.33398L8.83398 25L11.334 27.5H23.834L28.0007 24.1666L29.6673 26.6666H34.6673V18.3333H31.334H28.0007V11.6666H33.0007L31.334 6.66663H23.0007V20Z" fill="#E2195B"/>
<path d="M29.1731 25.4938C30.2048 26.5254 30.2048 28.1971 29.1731 29.2271C28.1414 30.2588 26.4698 30.2588 25.4398 29.2271C24.4081 28.1954 24.4081 26.5238 25.4398 25.4938C26.4714 24.4621 28.1431 24.4621 29.1731 25.4938" stroke="#353949" stroke-width="2" stroke-linecap="round" stroke-linejoin="round"/>
<path d="M10.8404 25.4932C11.8721 26.5248 11.8721 28.1965 10.8404 29.2265C9.80878 30.2582 8.13711 30.2582 7.10711 29.2265C6.07711 28.1948 6.07544 26.5232 7.10711 25.4932C8.13878 24.4632 9.80878 24.4615 10.8404 25.4932" stroke="#353949" stroke-width="2" stroke-linecap="round" stroke-linejoin="round"/>
<path d="M14.6673 1.66663H21.334C22.254 1.66663 23.0007 2.41329 23.0007 3.33329V20H1.33398" stroke="#353949" stroke-width="2" stroke-linecap="round" stroke-linejoin="round"/>
<path d="M6.33398 27.36H3.00065C2.08065 27.36 1.33398 26.6133 1.33398 25.6933V16.6666" stroke="#353949" stroke-width="2" stroke-linecap="round" stroke-linejoin="round"/>
<path d="M23 6.66663H30.205C30.8867 6.66663 31.5 7.08163 31.7517 7.71496L34.4283 14.405C34.585 14.7983 34.6667 15.2183 34.6667 15.6416V25.555C34.6667 26.475 33.92 27.2216 33 27.2216H29.9483" stroke="#353949" stroke-width="2" stroke-linecap="round" stroke-linejoin="round"/>
<path d="M24.6672 27.3665H11.6172" stroke="#353949" stroke-width="2" stroke-linecap="round" stroke-linejoin="round"/>
<path d="M34.6667 18.3333H28V11.6666H33.3333" stroke="#353949" stroke-width="2" stroke-linecap="round" stroke-linejoin="round"/>
<path d="M1.33398 1.66665H9.66732" stroke="#353949" stroke-width="2" stroke-linecap="round" stroke-linejoin="round"/>
<path d="M1.33398 6.66665H6.33398" stroke="#353949" stroke-width="2" stroke-linecap="round" stroke-linejoin="round"/>
<path d="M3.00065 11.6666H1.33398" stroke="#353949" stroke-width="2" stroke-linecap="round" stroke-linejoin="round"/>
</svg>
