<svg width="36" height="36" viewBox="0 0 36 36" fill="none" xmlns="http://www.w3.org/2000/svg">
<path fill-rule="evenodd" clip-rule="evenodd" d="M7.39417 21.2514L1.75 27.0292L6.26389 29.7375L8.97222 34.2514L16.0121 26.8577" fill="#E2195B" fill-opacity="0.1"/>
<path d="M7.39417 21.2514L1.75 27.0292L6.26389 29.7375L8.97222 34.2514L16.0121 26.8577" stroke="#353949" stroke-width="2" stroke-linecap="round" stroke-linejoin="round"/>
<path fill-rule="evenodd" clip-rule="evenodd" d="M19.9863 26.8577L27.0262 34.2514L29.7345 29.7375L34.2484 27.0292L28.6042 21.2514" fill="#E2195B" fill-opacity="0.1"/>
<path d="M19.9863 26.8577L27.0262 34.2514L29.7345 29.7375L34.2484 27.0292L28.6042 21.2514" stroke="#353949" stroke-width="2" stroke-linecap="round" stroke-linejoin="round"/>
<path d="M26.9373 5.45184C31.873 10.3876 31.873 18.3901 26.9373 23.3259C22.0015 28.2617 13.999 28.2617 9.06317 23.3259C4.12738 18.3901 4.12738 10.3876 9.06317 5.45184C13.999 0.516052 22.0015 0.516052 26.9373 5.45184" stroke="#353949" stroke-width="2" stroke-linecap="round" stroke-linejoin="round"/>
<path fill-rule="evenodd" clip-rule="evenodd" d="M17.9996 19.0532L21.2442 20.7577C21.8761 21.0899 22.6146 20.5536 22.4936 19.8495L21.8743 16.2366L24.4996 13.6799C25.0106 13.1816 24.7289 12.3131 24.0229 12.2102L20.3956 11.683L18.7742 8.39504C18.4582 7.75406 17.5464 7.75406 17.2304 8.39504L15.609 11.683L11.9799 12.212C11.2739 12.3149 10.9922 13.1834 11.5032 13.6817L14.1285 16.2384L13.5092 19.8513C13.3882 20.5555 14.1267 21.0917 14.7586 20.7595L18.0032 19.055H17.9996V19.0532Z" fill="#E2195B" fill-opacity="0.1" stroke="#353949" stroke-width="2" stroke-linecap="round" stroke-linejoin="round"/>
</svg>
