<svg width="30" height="34" viewBox="0 0 30 34" fill="none" xmlns="http://www.w3.org/2000/svg">
<path fill-rule="evenodd" clip-rule="evenodd" d="M9.28442 5.57143C5.07653 5.57143 1.66537 8.98259 1.66537 13.1905V24.619C1.66537 28.8269 5.07653 32.2381 9.28442 32.2381H20.713C24.9209 32.2381 28.332 28.8269 28.332 24.619V13.1905C28.332 8.98259 24.9209 5.57143 20.713 5.57143M9.28442 5.57143L20.713 5.57143L9.28442 5.57143ZM9.28442 5.57143V7.47619V5.57143ZM9.28442 5.57142V1.7619V5.57142ZM20.713 5.57143V7.47619V5.57143ZM20.713 5.57142V1.7619V5.57142Z" fill="#E2195B" fill-opacity="0.1"/>
<path d="M9.28442 6.57143C9.8367 6.57143 10.2844 6.12371 10.2844 5.57143C10.2844 5.01914 9.8367 4.57143 9.28442 4.57143V6.57143ZM20.713 4.57143C20.1607 4.57143 19.713 5.01914 19.713 5.57143C19.713 6.12371 20.1607 6.57143 20.713 6.57143V4.57143ZM9.28442 4.57143C8.73213 4.57143 8.28442 5.01914 8.28442 5.57143C8.28442 6.12371 8.73213 6.57143 9.28442 6.57143V4.57143ZM20.713 6.57143C21.2653 6.57143 21.713 6.12371 21.713 5.57143C21.713 5.01914 21.2653 4.57143 20.713 4.57143V6.57143ZM10.2844 5.57143C10.2844 5.01914 9.8367 4.57143 9.28442 4.57143C8.73213 4.57143 8.28442 5.01914 8.28442 5.57143L10.2844 5.57143ZM8.28442 7.47619C8.28442 8.02847 8.73213 8.47619 9.28442 8.47619C9.8367 8.47619 10.2844 8.02847 10.2844 7.47619H8.28442ZM8.28442 5.57142C8.28442 6.12371 8.73213 6.57142 9.28442 6.57142C9.8367 6.57142 10.2844 6.12371 10.2844 5.57142L8.28442 5.57142ZM10.2844 1.7619C10.2844 1.20962 9.8367 0.761902 9.28442 0.761902C8.73213 0.761902 8.28442 1.20962 8.28442 1.7619L10.2844 1.7619ZM21.713 5.57143C21.713 5.01914 21.2653 4.57143 20.713 4.57143C20.1607 4.57143 19.713 5.01914 19.713 5.57143H21.713ZM19.713 7.47619C19.713 8.02847 20.1607 8.47619 20.713 8.47619C21.2653 8.47619 21.713 8.02847 21.713 7.47619L19.713 7.47619ZM19.713 5.57142C19.713 6.12371 20.1607 6.57142 20.713 6.57142C21.2653 6.57142 21.713 6.12371 21.713 5.57142H19.713ZM21.713 1.7619C21.713 1.20962 21.2653 0.761902 20.713 0.761902C20.1607 0.761902 19.713 1.20962 19.713 1.7619H21.713ZM9.28442 4.57143C4.52425 4.57143 0.665369 8.4303 0.665369 13.1905H2.66537C2.66537 9.53487 5.62882 6.57143 9.28442 6.57143V4.57143ZM0.665369 13.1905V24.619H2.66537V13.1905H0.665369ZM0.665369 24.619C0.665369 29.3792 4.52425 33.2381 9.28442 33.2381V31.2381C5.62882 31.2381 2.66537 28.2746 2.66537 24.619H0.665369ZM9.28442 33.2381H20.713V31.2381H9.28442V33.2381ZM20.713 33.2381C25.4732 33.2381 29.332 29.3792 29.332 24.619H27.332C27.332 28.2746 24.3686 31.2381 20.713 31.2381V33.2381ZM29.332 24.619V13.1905H27.332V24.619H29.332ZM29.332 13.1905C29.332 8.4303 25.4732 4.57143 20.713 4.57143V6.57143C24.3686 6.57143 27.332 9.53487 27.332 13.1905H29.332ZM9.28442 6.57143H20.713V4.57143L9.28442 4.57143V6.57143ZM8.28442 5.57143V7.47619H10.2844V5.57143L8.28442 5.57143ZM10.2844 5.57142V1.7619L8.28442 1.7619V5.57142L10.2844 5.57142ZM19.713 5.57143V7.47619L21.713 7.47619V5.57143H19.713ZM21.713 5.57142V1.7619H19.713V5.57142H21.713Z" fill="#353949"/>
<path fill-rule="evenodd" clip-rule="evenodd" d="M7.38086 18.9047L11.1904 24.619L22.619 15.0952" fill="#E2195B" fill-opacity="0.1"/>
<path d="M7.38086 18.9047L11.1904 24.619L22.619 15.0952" stroke="#353949" stroke-width="2" stroke-linecap="round" stroke-linejoin="round"/>
</svg>
